# xmcd CD database file
#
# Track frame offsets:
#	150
#	13612
#	26346
#	42836
#	65118
#	77470
#	93287
#	107029
#	122646
#	131558
#	147560
#	163982
#	186464
#	203731
#	221368
#	239335
#	260547
#	279201
#	309691
#
# Disc length: 4390 seconds
#
# Revision: 0
# Processed by: cddbd v1.5.1PL0 Copyright (c) Steve Scherf et al.
# Submitted via: CDex 1.50Beta7
#
DISCID=11112413
DTITLE=Various Artist - Singles Hit Pops Anthology
DYEAR=1990
DGENRE=Pop
TTITLE0=Saturday Night
TTITLE1=Bye Bye Baby
TTITLE2=I Only Want To Be With You
TTITLE3=Aquarius (Let The Sunshine In)
TTITLE4=Up Up And Away
TTITLE5=Tie A Yellow Ribbon Round The Ole Oak Tree
TTITLE6=Knock Three Times
TTITLE7=(La La)Means I Love You
TTITLE8=The Letter
TTITLE9=Seasons In The Sun
TTITLE10=Wham Bam
TTITLE11=All By Myself
TTITLE12=Never Gonna Fall In Love Again
TTITLE13=Don't Cry Out Love
TTITLE14=Lost In Love
TTITLE15=Eye In The Sky
TTITLE16=A Woman Needs Love
TTITLE17=Jump To It
TTITLE18=Heartbreaker
EXTD=YEAR: 1990
EXTT0=
EXTT1=
EXTT2=
EXTT3=
EXTT4=
EXTT5=
EXTT6=
EXTT7=
EXTT8=
EXTT9=
EXTT10=
EXTT11=
EXTT12=
EXTT13=
EXTT14=
EXTT15=
EXTT16=
EXTT17=
EXTT18=
PLAYORDER=
